<?xml version="1.0" encoding="utf-8"?>
<!-- Generator: Adobe Illustrator 18.0.0, SVG Export Plug-In . SVG Version: 6.00 Build 0)  -->
<svg version="1.2" baseProfile="tiny" id="Layer_1" xmlns="http://www.w3.org/2000/svg" xmlns:xlink="http://www.w3.org/1999/xlink"
	 x="0px" y="0px" viewBox="0 0 19.8 19.8" xml:space="preserve">
<g>
	<circle cx="9.9" cy="9.9" r="9.9"/>
	<g>
		<path fill="#FFFFFF" d="M16.5,9.9c-0.1-0.1-0.2-0.2-0.4-0.2h-0.8c0-3.1-2.6-5.6-5.7-5.6C9.3,4.1,9,4.4,9,4.7
			c0,0.4,0.3,0.7,0.7,0.7c2.3,0,4.3,1.9,4.3,4.2h-0.8c-0.2,0-0.3,0.1-0.4,0.2c-0.1,0.1-0.1,0.3,0,0.4l1.5,1.9
			c0.1,0.1,0.2,0.2,0.3,0.2c0.1,0,0.3-0.1,0.3-0.2l1.5-1.9C16.6,10.2,16.6,10,16.5,9.9z"/>
		<path fill="#FFFFFF" d="M9.7,14.2c-0.4,0-0.7,0.3-0.7,0.7v0.9c0,0.4,0.3,0.7,0.7,0.7s0.7-0.3,0.7-0.7v-0.9
			C10.4,14.5,10.1,14.2,9.7,14.2z"/>
		<path fill="#FFFFFF" d="M6.7,6.2C6.8,6.4,7,6.5,7.3,6.5c0.1,0,0.2,0,0.3-0.1C7.9,6.2,8,5.8,7.9,5.5L7.4,4.7
			C7.2,4.4,6.8,4.3,6.5,4.5C6.2,4.7,6,5.1,6.2,5.4L6.7,6.2z"/>
		<path fill="#FFFFFF" d="M12.7,13.9c-0.2-0.3-0.6-0.4-0.9-0.3c-0.3,0.2-0.4,0.6-0.3,0.9l0.4,0.7c0.1,0.2,0.4,0.3,0.6,0.3
			c0.1,0,0.2,0,0.3-0.1c0.3-0.2,0.4-0.6,0.3-0.9L12.7,13.9z"/>
		<path fill="#FFFFFF" d="M4.4,7.8l0.7,0.4c0.1,0.1,0.2,0.1,0.3,0.1c0.2,0,0.5-0.1,0.6-0.3C6.3,7.6,6.2,7.2,5.8,7L5.1,6.6
			C4.8,6.4,4.3,6.5,4.1,6.8C4,7.2,4.1,7.6,4.4,7.8z"/>
		<path fill="#FFFFFF" d="M5.5,10c0-0.4-0.3-0.7-0.7-0.7H4c-0.4,0-0.7,0.3-0.7,0.7s0.3,0.7,0.7,0.7h0.9C5.2,10.7,5.5,10.4,5.5,10z"
			/>
		<path fill="#FFFFFF" d="M6.1,12.1c-0.2-0.3-0.6-0.4-0.9-0.3l-0.7,0.4c-0.3,0.2-0.4,0.6-0.3,0.9c0.1,0.2,0.4,0.3,0.6,0.3
			c0.1,0,0.2,0,0.3-0.1l0.7-0.4C6.2,12.9,6.3,12.4,6.1,12.1z"/>
		<path fill="#FFFFFF" d="M7.6,13.6c-0.3-0.2-0.7-0.1-0.9,0.3l-0.4,0.7C6,15,6.2,15.4,6.5,15.6c0.1,0.1,0.2,0.1,0.3,0.1
			c0.2,0,0.5-0.1,0.6-0.3l0.4-0.7C8,14.3,7.9,13.8,7.6,13.6z"/>
		<path fill="#FFFFFF" d="M9.3,11.4c0-0.2-0.2-0.4-0.4-0.4H8.1c0,0,0,0,0,0c0.1-0.1,0.2-0.2,0.4-0.4c0.2-0.2,0.3-0.3,0.4-0.4
			C9.1,10,9.2,9.9,9.2,9.8c0.1-0.1,0.1-0.3,0.1-0.5C9.3,9,9.2,8.8,9,8.6C8.8,8.4,8.5,8.3,8.2,8.3c-0.3,0-0.6,0.1-0.8,0.2
			C7.2,8.6,7.1,8.8,7.1,8.9c0,0.1,0,0.2,0,0.4c0.1,0.1,0.2,0.2,0.3,0.2c0,0,0,0,0,0c0.2,0,0.3-0.1,0.4-0.3c0-0.1,0-0.1,0.1-0.1
			C8,9,8,9,8.1,9c0.1,0,0.2,0,0.2,0.1c0.1,0.1,0.1,0.1,0.1,0.3c0,0.1,0,0.2-0.1,0.3c0,0.1-0.2,0.2-0.5,0.5c-0.4,0.3-0.6,0.6-0.7,0.8
			C7,11.2,7,11.3,6.9,11.5c0,0.1,0,0.2,0,0.2c0,0.1,0.1,0.1,0.2,0.1h1.7C9.1,11.8,9.3,11.6,9.3,11.4z"/>
		<path fill="#FFFFFF" d="M11.6,11.4v-0.3h0c0.2,0,0.4-0.2,0.4-0.4c0-0.2-0.2-0.4-0.4-0.4h0V8.5c0-0.1-0.1-0.2-0.2-0.2H11
			c-0.1,0-0.2,0-0.2,0.1l-1.3,2c0,0.1-0.1,0.1-0.1,0.2v0.3c0,0.1,0.1,0.2,0.2,0.2h1.1v0.3c0,0.2,0.2,0.4,0.4,0.4
			C11.4,11.8,11.6,11.6,11.6,11.4z M10.8,10.4h-0.5l0.5-0.7V10.4z"/>
	</g>
</g>
</svg>
