<?xml version="1.0" encoding="utf-8"?>
<!-- Generator: Adobe Illustrator 18.0.0, SVG Export Plug-In . SVG Version: 6.00 Build 0)  -->
<svg version="1.2" baseProfile="tiny" id="Layer_1" xmlns="http://www.w3.org/2000/svg" xmlns:xlink="http://www.w3.org/1999/xlink"
	 x="0px" y="0px" viewBox="0 0 19.8 19.8" xml:space="preserve">
<g>
	<circle cx="9.9" cy="9.9" r="9.9"/>
	<g>
		<path fill="#FFFFFF" d="M7.5,10.6H4.9v1.3h2.9v1.6H3V6.4h4.6v1.6H4.9v1.1h2.6V10.6z"/>
		<path fill="#FFFFFF" d="M14.9,10.9c0-0.8,0-1.8,0-2.9h0c-0.2,0.9-0.5,2-0.8,2.8l-0.7,2.5h-1.5l-0.6-2.5c-0.2-0.8-0.4-1.8-0.6-2.8
			h0c0,1-0.1,2.1-0.1,2.9l-0.1,2.5H8.7l0.4-7.1h2.6l0.5,1.9c0.2,0.8,0.4,1.7,0.6,2.6h0C13,10,13.2,9,13.4,8.3L14,6.4h2.5l0.4,7.1H15
			L14.9,10.9z"/>
	</g>
</g>
</svg>
