<?xml version="1.0" encoding="utf-8"?>
<!-- Generator: Adobe Illustrator 18.0.0, SVG Export Plug-In . SVG Version: 6.00 Build 0)  -->
<svg version="1.2" baseProfile="tiny" id="Layer_1" xmlns="http://www.w3.org/2000/svg" xmlns:xlink="http://www.w3.org/1999/xlink"
	 x="0px" y="0px" viewBox="0 0 19.8 19.8" xml:space="preserve">
<g>
	<circle cx="9.9" cy="9.9" r="9.9"/>
	<g>
		<g id="Layer_1_64_">
			<g>
				<path fill="#FFFFFF" d="M9.7,9.7c0,0.1,0.1,0.2,0.2,0.2s0.2-0.1,0.2-0.2c0-0.3,0.1-0.6,0.3-0.8c0.4-0.5,0.7-1,0.9-1.6
					c0-0.1,0-0.2,0-0.2C11.3,7,11.2,7,11.1,7H8.7C8.6,7,8.6,7,8.5,7.1c0,0.1-0.1,0.1,0,0.2C8.7,7.9,9,8.4,9.4,8.9
					C9.6,9.1,9.7,9.4,9.7,9.7z"/>
				<path fill="#FFFFFF" d="M10.2,10.7c0-0.1-0.1-0.2-0.2-0.2s-0.2,0.1-0.2,0.2c0,0.4-0.2,0.7-0.6,1c-0.8,0.6-1.4,1.3-1.8,1.9
					c0,0.1,0,0.2,0,0.2c0,0.1,0.1,0.1,0.2,0.1h4.9c0.1,0,0.2,0,0.2-0.1c0-0.1,0-0.2,0-0.2c-0.4-0.7-1-1.3-1.8-1.9
					C10.4,11.4,10.2,11,10.2,10.7z"/>
				<path fill="#FFFFFF" d="M14.2,14.3H14c-0.2-1.9-1.3-3.4-2.1-4.4c0.9-1,2-2.5,2.1-4.4h0.1c0.3,0,0.5-0.2,0.5-0.5
					c0-0.3-0.2-0.5-0.5-0.5H5.7C5.4,4.6,5.2,4.8,5.2,5c0,0.3,0.2,0.5,0.5,0.5h0.1C6,7.4,7.1,8.9,7.9,9.9c-0.9,1-2,2.5-2.1,4.4H5.7
					c-0.3,0-0.5,0.2-0.5,0.5c0,0.3,0.2,0.5,0.5,0.5h0.6h7.3h0.6c0.3,0,0.5-0.2,0.5-0.5C14.7,14.5,14.5,14.3,14.2,14.3z M6.8,14.3
					c0.2-1.7,1.3-3,2.1-4l0-0.1c0.2-0.2,0.2-0.4,0-0.6l0-0.1c-0.8-1-1.9-2.3-2.1-4h6.3c-0.2,1.7-1.3,3-2.1,4l0,0.1
					c-0.2,0.2-0.2,0.4,0,0.6l0,0.1c0.8,1,1.9,2.3,2.1,4C13.1,14.3,6.8,14.3,6.8,14.3z"/>
			</g>
		</g>
	</g>
</g>
</svg>
