<?xml version="1.0" encoding="utf-8"?>
<!-- Generator: Adobe Illustrator 18.0.0, SVG Export Plug-In . SVG Version: 6.00 Build 0)  -->
<svg xmlns="http://www.w3.org/2000/svg" xmlns:xlink="http://www.w3.org/1999/xlink" version="1.2" baseProfile="tiny" id="Layer_1" x="0px" y="0px" viewBox="0 0 19.8 19.8" xml:space="preserve">
<g>
	<circle cx="9.9" cy="9.9" r="9.9"/>
	<g>
		<g>
			<g>
				<path fill="#FFFFFF" d="M8.6,6.3C8.3,6,8.2,5.9,8.2,5.6c0-0.3,0.1-0.4,0.4-0.7c0.2-0.2,0.2-0.5,0-0.7C8.4,4,8,4,7.8,4.2      C7.6,4.5,7.2,4.9,7.2,5.6c0,0.7,0.4,1.1,0.7,1.4c0.3,0.3,0.4,0.4,0.4,0.7c0,0.3,0.2,0.5,0.5,0.5c0.3,0,0.5-0.2,0.5-0.5      C9.2,6.9,8.9,6.5,8.6,6.3z"/>
			</g>
		</g>
		<g>
			<g>
				<path fill="#FFFFFF" d="M11,6.3c-0.3-0.3-0.4-0.4-0.4-0.7c0-0.3,0.1-0.4,0.4-0.7c0.2-0.2,0.2-0.5,0-0.7c-0.2-0.2-0.5-0.2-0.7,0      C10,4.5,9.6,4.9,9.6,5.6c0,0.7,0.4,1.1,0.7,1.4c0.3,0.3,0.4,0.4,0.4,0.7c0,0.3,0.2,0.5,0.5,0.5c0.3,0,0.5-0.2,0.5-0.5      C11.6,6.9,11.3,6.5,11,6.3z"/>
			</g>
		</g>
		<g>
			<g>
				<path fill="#FFFFFF" d="M13,13h0.5c0,0,0,0,0,0c1,0,1.9-0.8,1.9-1.9c0-1-0.8-1.9-1.9-1.9h-0.7H6c-0.3,0-0.5,0.2-0.5,0.5v1.7      c0,1.2,0.5,2.2,1.3,2.9H5.6c-0.3,0-0.5,0.2-0.5,0.5c0,0.3,0.2,0.5,0.5,0.5h3.8h3.8c0.3,0,0.5-0.2,0.5-0.5c0-0.3-0.2-0.5-0.5-0.5      h-1.1C12.5,14,12.8,13.5,13,13z M13.4,11.4v-1.2h0.2c0.5,0,0.9,0.4,0.9,0.9S14,12,13.5,12c0,0,0,0,0,0h-0.2      C13.4,11.8,13.4,11.6,13.4,11.4z"/>
			</g>
		</g>
	</g>
</g>
</svg>
